<svg xmlns="http://www.w3.org/2000/svg" width="16" height="12.095" viewBox="-386 684 16 12.095"><g data-name="Layer 2"><g data-name="Layer 1"><path d="M-375.71 686.1a2.62 2.62 0 0 1 1.22 1.92 2 2 0 0 0 .89.2 2.11 2.11 0 1 0-2.11-2.14Z" fill="rgba(255,255,255,0.8 )" fill-rule="evenodd" data-name="Path 381"/><path d="M-377.89 690.42a2.11 2.11 0 1 0 0-4.22 2.11 2.11 0 0 0 0 4.22Z" fill="rgba(255,255,255,0.8 )" fill-rule="evenodd" data-name="Path 382"/><path d="M-377 690.57h-1.79a2.7 2.7 0 0 0-2.7 2.7v2.23h.15c1.19.38 2.43.58 3.68.59a7.39 7.39 0 0 0 3.21-.61l.14-.07v-2.14a2.71 2.71 0 0 0-2.69-2.7Z" fill="rgba(255,255,255,0.8 )" fill-rule="evenodd" data-name="Path 383"/><path d="M-372.7 688.39h-1.78a2.57 2.57 0 0 1-.81 1.81 3.21 3.21 0 0 1 2.29 3.08v.67a7.21 7.21 0 0 0 2.83-.59l.17-.08v-2.19a2.7 2.7 0 0 0-2.7-2.7Z" fill="rgba(255,255,255,0.8 )" fill-rule="evenodd" data-name="Path 384"/><path d="M-382.4 688.24c.396 0 .784-.11 1.12-.32a2.63 2.63 0 0 1 1-1.67v-.12a2.11 2.11 0 1 0-2.12 2.11Z" fill="rgba(255,255,255,0.8 )" fill-rule="evenodd" data-name="Path 385"/><path d="M-380.5 690.2a2.65 2.65 0 0 1-.81-1.8h-2a2.7 2.7 0 0 0-2.69 2.69v2.23h.15c.972.316 1.98.51 3 .58v-.62a3.21 3.21 0 0 1 2.35-3.08Z" fill="rgba(255,255,255,0.8 )" fill-rule="evenodd" data-name="Path 386"/></g></g></svg>