<svg xmlns="http://www.w3.org/2000/svg" width="16.005" height="15.11" viewBox="-404 602 16.005 15.11"><g data-name="Layer 2"><g data-name="Layer 1"><path d="M-389.327 604.27h-3.34v-.76a1.43 1.43 0 0 0-1.33-1.51h-4a1.43 1.43 0 0 0-1.33 1.51v.76h-3.34a1.43 1.43 0 0 0-1.33 1.51v9.82a1.43 1.43 0 0 0 1.33 1.51h13.34a1.43 1.43 0 0 0 1.33-1.51v-9.82a1.43 1.43 0 0 0-1.33-1.51Zm-9.34-.76a.71.71 0 0 1 .67-.75h4a.71.71 0 0 1 .67.75v.76h-5.34v-.76Zm10 12.09a.72.72 0 0 1-.66.76h-13.34a.72.72 0 0 1-.66-.76v-5.5c.194.135.424.208.66.21h4v1c0 .492.398.89.89.89h3.56a.89.89 0 0 0 .89-.89v-1h4a1.18 1.18 0 0 0 .66-.21v5.5Zm0-6.8a.72.72 0 0 1-.66.76h-4a.89.89 0 0 0-.89-.89h-3.56a.89.89 0 0 0-.89.89h-4a.72.72 0 0 1-.66-.76v-3a.72.72 0 0 1 .66-.8h13.34a.72.72 0 0 1 .66.76v3.04Z" fill="rgba(255,255,255,0.8 )" fill-rule="evenodd" data-name="Path 387"/></g></g></svg>