<svg xmlns="http://www.w3.org/2000/svg" width="16" height="16" viewBox="-522 42 16 16"><g data-name="Layer 2"><g data-name="Layer 1"><path d="M-514 42a8 8 0 1 0 0 16 8 8 0 0 0 0-16Zm0 15.16a7.16 7.16 0 1 1 7.16-7.16 7.17 7.17 0 0 1-7.16 7.16Z" fill="rgba(255,255,255,0.8 )" fill-rule="evenodd" data-name="Path 393"/><path d="M-514.42 51.31a1.37 1.37 0 0 0 1.71-.9 1.35 1.35 0 0 0-.29-1.27l2.41-3.59a.39.39 0 0 0-.1-.55.4.4 0 0 0-.55.11l-2.38 3.59a1.365 1.365 0 1 0-.8 2.61Zm-.07-1.63a.596.596 0 1 1 1 .65.596.596 0 0 1-1-.65Z" fill="rgba(255,255,255,0.8 )" fill-rule="evenodd" data-name="Path 394"/><path d="m-513.92 45.92.49-.84a4.78 4.78 0 0 0-3.72 8.12l.45-.77a3.92 3.92 0 0 1 2.78-6.51Z" fill="rgba(255,255,255,0.8 )" fill-rule="evenodd" data-name="Path 395"/><path d="M-510.27 48a3.91 3.91 0 0 1-4.25 5.67l-.48.8a4.78 4.78 0 0 0 5.19-7.29l-.46.82Z" fill="rgba(255,255,255,0.8 )" fill-rule="evenodd" data-name="Path 396"/></g></g></svg>