<svg xmlns="http://www.w3.org/2000/svg" width="16.055" height="15.84" viewBox="-393.999 130 16.055 15.84"><g data-name="Layer 1"><path d="M-387.714 138a1.86 1.86 0 1 1 3.72-.08 1.86 1.86 0 0 1-3.72.08m9.77-.1a7.9 7.9 0 0 0-6.2-7.72v.88a7.06 7.06 0 0 1-1.29 13.94v-2.3h-.45a4.78 4.78 0 0 1-4.75-4.37h1.34c0 .3.19.86.19.86a3.46 3.46 0 0 0 6.65-.85h2.08v-.85a5.62 5.62 0 0 0-5.23-5.16V130h-.85a7.91 7.91 0 0 0-1.32 15.63v-.88a7.06 7.06 0 0 1 1.32-13.88v2.3h.45a4.78 4.78 0 0 1 4.75 4.32h-1.2a3.44 3.44 0 0 0-6.83 0h-2.23v.86a5.64 5.64 0 0 0 5.21 5.16v2.33h.85a7.92 7.92 0 0 0 7.51-7.94" fill="rgba(255,255,255,0.8 )" fill-rule="evenodd" data-name="Path 397"/></g></svg>