<svg xmlns="http://www.w3.org/2000/svg" width="21.903" height="25.48" viewBox="259.18 48.932 21.903 25.48"><path d="M271.44 74.412h-9.182V53.106c0-1.161-.223-1.42-1.772-2.682l-1.306-1.112v-.38h13.01c2.088 0 3.985.52 5.342 1.462 1.632 1.133 2.46 2.796 2.46 4.944 0 2.696-1.613 4.728-4.424 5.573v.07l.01.006a6.052 6.052 0 0 1 3.96 1.997 6.052 6.052 0 0 1 1.544 4.158c0 2.548-1.015 4.47-3.016 5.714-2.069 1.286-4.745 1.556-6.627 1.556Zm-4.654-11.228v7.336h4.265c1.525 0 2.693-.2 3.57-.612 1.269-.595 1.912-1.647 1.912-3.127 0-2.555-1.562-3.597-5.393-3.597h-4.354Zm0-10.369v6.476h4.133c1.806 0 2.866-.31 3.658-1.071a2.856 2.856 0 0 0 .876-2.127 2.9 2.9 0 0 0-.85-2.197c-.768-.732-1.574-1.08-4.079-1.08h-3.738Z" fill="#fff" fill-rule="evenodd" data-name="Subtraction 2"/></svg>