<svg xmlns="http://www.w3.org/2000/svg" width="16" height="17.28" viewBox="-346 204 16 17.28"><g data-name="Layer 2"><g data-name="Layer 1"><path d="M-340.49 206.2a2.25 2.25 0 0 1-.08-.58v-.12a7.68 7.68 0 0 0-2.43 1.51c.185.132.353.286.5.46a6.69 6.69 0 0 1 2.01-1.27Z" fill="rgba(255,255,255,0.8 )" fill-rule="evenodd" data-name="Path 402"/><path d="M-338.06 207.18a1.59 1.59 0 1 0-1.6-1.57 1.58 1.58 0 0 0 1.6 1.57Z" fill="rgba(255,255,255,0.8 )" fill-rule="evenodd" data-name="Path 403"/><path d="M-337.94 218.1a1.59 1.59 0 1 0 .02 3.18 1.59 1.59 0 0 0-.02-3.18Z" fill="rgba(255,255,255,0.8 )" fill-rule="evenodd" data-name="Path 404"/><path d="M-335.51 219.09c.052.185.08.377.08.57v.12a7.51 7.51 0 0 0 2.43-1.48 2.17 2.17 0 0 1-.5-.46 6.92 6.92 0 0 1-2.01 1.25Z" fill="rgba(255,255,255,0.8 )" fill-rule="evenodd" data-name="Path 405"/><path d="M-344.4 210.65a1.59 1.59 0 1 0-.02-3.18 1.59 1.59 0 0 0 .02 3.18Z" fill="rgba(255,255,255,0.8 )" fill-rule="evenodd" data-name="Path 406"/><path d="M-331.65 210.51a1.59 1.59 0 1 0-.02-3.18 1.59 1.59 0 0 0 .02 3.18Z" fill="rgba(255,255,255,0.8 )" fill-rule="evenodd" data-name="Path 407"/><path d="M-333.59 207.36a2.71 2.71 0 0 1 .49-.47 7.43 7.43 0 0 0-2.5-1.44.5.5 0 0 0 0 .12 2.79 2.79 0 0 1-.07.58 7 7 0 0 1 2.08 1.21Z" fill="rgba(255,255,255,0.8 )" fill-rule="evenodd" data-name="Path 408"/><path d="M-344.35 214.77a1.59 1.59 0 1 0 .02 3.18 1.59 1.59 0 0 0-.02-3.18Z" fill="rgba(255,255,255,0.8 )" fill-rule="evenodd" data-name="Path 409"/><path d="M-342.41 217.93a3.11 3.11 0 0 1-.49.47 7.78 7.78 0 0 0 2.5 1.44.5.5 0 0 0 0-.12 2.71 2.71 0 0 1 .07-.58 7 7 0 0 1-2.08-1.21Z" fill="rgba(255,255,255,0.8 )" fill-rule="evenodd" data-name="Path 410"/><path d="M-331.6 214.63a1.59 1.59 0 1 0 .02 3.18 1.59 1.59 0 0 0-.02-3.18Z" fill="rgba(255,255,255,0.8 )" fill-rule="evenodd" data-name="Path 411"/><path d="M-345.47 211.31a7.36 7.36 0 0 0-.12 1.42c.008.47.061.94.16 1.4.203-.1.418-.174.64-.22a6.58 6.58 0 0 1-.02-2.39 2.42 2.42 0 0 1-.66-.21Z" fill="rgba(255,255,255,0.8 )" fill-rule="evenodd" data-name="Path 412"/><path d="M-330.53 214.01a7.17 7.17 0 0 0 0-2.82 2.31 2.31 0 0 1-.64.22c.076.396.116.797.12 1.2a6 6 0 0 1-.1 1.2c.216.034.425.102.62.2Z" fill="rgba(255,255,255,0.8 )" fill-rule="evenodd" data-name="Path 413"/><path d="m-338.507 207.967.91-.01.01.91-.91.01-.01-.91z" fill="rgba(255,255,255,0.8 )" fill-rule="evenodd" data-name="Rectangle 770"/><path d="m-338.414 216.426.91-.01.01.91-.91.01-.01-.91z" fill="rgba(255,255,255,0.8 )" fill-rule="evenodd" data-name="Rectangle 771"/><path d="m-334.877 214.977.437-.798.798.438-.437.798-.798-.438z" fill="rgba(255,255,255,0.8 )" fill-rule="evenodd" data-name="Rectangle 772"/><path d="m-342.274 210.446.437-.799.798.438-.437.798-.798-.437z" fill="rgba(255,255,255,0.8 )" fill-rule="evenodd" data-name="Rectangle 773"/><path d="m-334.884 210.373.734-.539.538.734-.734.538-.538-.733z" fill="rgba(255,255,255,0.8 )" fill-rule="evenodd" data-name="Rectangle 774"/><path d="m-342.551 214.55.734-.538.538.733-.734.539-.538-.734z" fill="rgba(255,255,255,0.8 )" fill-rule="evenodd" data-name="Rectangle 775"/><path d="M-338 209.64a3 3 0 1 0 0 6 3 3 0 0 0 0-6Z" fill="rgba(255,255,255,0.8 )" fill-rule="evenodd" data-name="Path 414"/></g></g></svg>