<svg xmlns="http://www.w3.org/2000/svg" width="16" height="16" viewBox="-378 375 16 16"><g data-name="Layer 2"><g data-name="Layer 1"><path d="M-366.29 378.43h-7.42a.46.46 0 0 0-.46.46v6.5a.46.46 0 0 0 .25.42l3.23 1.57c.213.123.454.189.7.19.228 0 .451-.06.65-.17l3.26-1.59a.46.46 0 0 0 .25-.42v-6.5a.46.46 0 0 0-.46-.46Zm-4.15 5.94a.56.56 0 0 1-.78 0l-1.66-1.66.78-.78 1.27 1.27 2.93-2.93.78.78-3.32 3.32Z" fill="rgba(255,255,255,0.8 )" fill-rule="evenodd" data-name="Path 415"/><path d="M-364.11 391h-11.78a2.1 2.1 0 0 1-2.11-2.11v-10.27l3.62-3.62h10.27a2.1 2.1 0 0 1 2.11 2.11v11.78a2.1 2.1 0 0 1-2.11 2.11Zm-13.05-12v9.93c0 .701.569 1.27 1.27 1.27h11.78a1.27 1.27 0 0 0 1.27-1.27v-11.82a1.27 1.27 0 0 0-1.27-1.27H-374l-3.16 3.16Z" fill="rgba(255,255,255,0.8 )" fill-rule="evenodd" data-name="Path 416"/></g></g></svg>