<svg xmlns="http://www.w3.org/2000/svg" width="16.035" height="19.33" viewBox="-379 526 16.035 19.33"><g data-name="Layer 2"><g data-name="Layer 1"><path d="M-370.982 545.33h-.13c-8.1-2.86-7.95-9.52-7.87-14.33v-2h.52a9.69 9.69 0 0 0 7.2-2.72l.28-.28.29.29a9.78 9.78 0 0 0 7.24 2.76h.47v1.94c.08 4.87.19 11.53-7.88 14.3l-.12.04Zm-7.11-15.49v1.13c-.13 4.83-.26 10.83 7.11 13.47 7.35-2.6 7.25-8.6 7.17-13.43v-1.13a10.39 10.39 0 0 1-7.17-2.72 10.44 10.44 0 0 1-7.11 2.68Z" fill="rgba(255,255,255,0.8 )" fill-rule="evenodd" data-name="Path 417"/><path d="m-374.322 534.59 1.83-.27a.42.42 0 0 0 .32-.22l.82-1.67a.41.41 0 0 1 .74 0l.82 1.67a.42.42 0 0 0 .32.22l1.83.27a.42.42 0 0 1 .23.71l-1.33 1.29a.43.43 0 0 0-.12.37l.32 1.83a.42.42 0 0 1-.61.44l-1.64-.87a.42.42 0 0 0-.38 0l-1.65.87a.42.42 0 0 1-.6-.44l.31-1.79a.4.4 0 0 0-.12-.37l-1.32-1.33a.42.42 0 0 1 .23-.71Z" fill="rgba(255,255,255,0.8 )" fill-rule="evenodd" data-name="Path 418"/></g></g></svg>