<svg xmlns="http://www.w3.org/2000/svg" width="16" height="16" viewBox="-407 434 16 16"><g data-name="Layer 2"><g data-name="Layer 1"><path d="M-393.11 434h-10.27l-3.62 3.62v10.27a2.1 2.1 0 0 0 2.11 2.11h11.78a2.1 2.1 0 0 0 2.11-2.11v-11.78a2.1 2.1 0 0 0-2.11-2.11Zm1.27 13.89a1.27 1.27 0 0 1-1.27 1.27h-11.78a1.27 1.27 0 0 1-1.27-1.27V438l3.16-3.16h9.93c.701 0 1.27.569 1.27 1.27l-.04 11.78Z" fill="rgba(255,255,255,0.8 )" fill-rule="evenodd" data-name="Path 419"/><path d="M-399.73 446.89v-4.42h-4.43a4.42 4.42 0 0 0 4.43 4.42Zm-.85-.89a3.6 3.6 0 0 1-2.63-2.69h2.63V446Z" fill="rgba(255,255,255,0.8 )" fill-rule="evenodd" data-name="Path 420"/><path d="M-398.8 437.11a4.42 4.42 0 0 0-4.42 4.42h4.42V446a4.42 4.42 0 1 0 0-8.84Z" fill="rgba(255,255,255,0.8 )" fill-rule="evenodd" data-name="Path 421"/></g></g></svg>