<svg xmlns="http://www.w3.org/2000/svg" width="17.001" height="15.136" viewBox="3 4 17.001 15.136"><g data-name="Layer 1"><path d="m15.171 12.36-3.17 5.49a.55.55 0 0 1-.49.29.56.56 0 0 1-.51-.29l-3.17-5.49-.65.86 3 5.13a1.57 1.57 0 0 0 2.72 0l3-5.13-.73-.86Z" fill="rgba(255,255,255,0.8 )" fill-rule="evenodd" data-name="Path 398"/><path d="M4.081 5.29a.56.56 0 0 1 .49-.29h3.94V4h-3.94a1.55 1.55 0 0 0-1.36.79 1.55 1.55 0 0 0 0 1.56l2.34 4.05.66-.86-2.13-3.69a.54.54 0 0 1 0-.56Z" fill="rgba(255,255,255,0.8 )" fill-rule="evenodd" data-name="Path 399"/><path d="M19.791 4.79a1.53 1.53 0 0 0-1.36-.79h-4.94v1h4.94a.54.54 0 0 1 .49.29.54.54 0 0 1 0 .56l-2.12 3.69.65.86 2.34-4.05a1.55 1.55 0 0 0 0-1.56Z" fill="rgba(255,255,255,0.8 )" fill-rule="evenodd" data-name="Path 400"/><path d="m10.951 4-2.61 6.21h3.08v4.36h.47l2.61-6.16h-3.08V4h-.47Z" fill="rgba(255,255,255,0.8 )" fill-rule="evenodd" data-name="Path 401"/></g></svg>