<svg xmlns="http://www.w3.org/2000/svg" width="16" height="18.95" viewBox="-372 767 16 18.95"><g data-name="Layer 2"><g data-name="Layer 1"><path d="m-356 772.58-2.32 1.37v6.31l-5.26 2.95v2.74l7.58-4.32v-9.05Z" fill="rgba(255,255,255,0.8 )" fill-rule="evenodd" data-name="Path 422"/><path d="m-363.58 781.84 4.11-2.63v-5.05l-4.11 2.42v5.26Z" fill="rgba(255,255,255,0.8 )" fill-rule="evenodd" data-name="Path 423"/><path d="m-368.74 783.42 4.11 2.32v-9.16l-4.11-2.42v9.26Z" fill="rgba(255,255,255,0.8 )" fill-rule="evenodd" data-name="Path 424"/><path d="m-359.79 773.42-.84-.53-.84-.52-.42-.21-.43-.32-3.47 2-.95-.52 3.48-2-.85-.42-3.47 1.89-.84.53.84.52.95.53.42.21.42.21 3.47-1.9.85.53-3.37 1.9.84.52 3.37-2 .84-.42Z" fill="rgba(255,255,255,0.8 )" fill-rule="evenodd" data-name="Path 425"/><path d="m-358.74 772.89 2.32-1.36-7.79-4.53-7.79 4.53v10.1l2.32 1.26v-10l5.47-3.15 5.47 3.15Z" fill="rgba(255,255,255,0.8 )" fill-rule="evenodd" data-name="Path 426"/></g></g></svg>